<svg width="20" height="20" viewBox="0 0 20 20" fill="none" xmlns="http://www.w3.org/2000/svg">
<g clip-path="url(#clip0_915_7018)">
<path fill-rule="evenodd" clip-rule="evenodd" d="M9.16602 0.414062C4.6787 0.414062 1.04102 3.89359 1.04102 8.1858C1.04102 12.478 4.6787 15.9575 9.16602 15.9575C13.6533 15.9575 17.291 12.478 17.291 8.1858C17.291 3.89359 13.6533 0.414062 9.16602 0.414062ZM2.29102 8.1858C2.29102 4.55393 5.36906 1.60971 9.16602 1.60971C12.963 1.60971 16.041 4.55393 16.041 8.1858C16.041 11.8177 12.963 14.7619 9.16602 14.7619C5.36906 14.7619 2.29102 11.8177 2.29102 8.1858Z" fill="#B9BABC"/>
<path d="M16.2747 14.14C16.0306 13.9065 15.6349 13.9065 15.3908 14.14C15.1467 14.3734 15.1467 14.7519 15.3908 14.9854L18.724 18.1738C18.9681 18.4072 19.3638 18.4072 19.6079 18.1738C19.852 17.9403 19.852 17.5618 19.6079 17.3283L16.2747 14.14Z" fill="#B9BABC"/>
</g>
<defs>
<clipPath id="clip0_915_7018">
<rect width="20" height="19.1304" fill="white" transform="translate(0 0.214844)"/>
</clipPath>
</defs>
</svg>
